<svg version="1.1" viewBox="0.0 0.0 1020 750" fill="none" stroke="none" stroke-linecap="square" stroke-miterlimit="10"
     xmlns="http://www.w3.org/2000/svg">
<defs>
  <radialGradient id="ripple-gradient">
    <stop offset="0%" stop-color="#0000" />
    <stop offset="90%" stop-color="#0000" />
    <stop offset="100%" stop-color="#000" />
  </radialGradient>
</defs>
<style>
	text.desk {
		dominant-baseline: middle;
	}
	text.desk:not(.selected) {
		font-weight: 500;
	}
	text.desk.selected {
		font-size: 40px;
		fill: #fff;
	}
	@keyframes ripple {
		0%   { r: 25px; }
		90%  {           opacity: 100%; }
		100% { r: 100px; opacity: 0; }
	}
	circle.desk:not(.selected) {
		opacity: 80%;
	}
	@keyframes desk-selected {
		0%   { r: 25px; }
		100% { r: 30px; }
	}
	circle.desk.selected {
		r: 30px;
		fill: #000;
	  animation-name: desk-selected;
	  animation-duration: 1s;
	  animation-iteration-count: infinite;
		animation-direction: alternate;
	}
	.ripple.selected {
		visibility: visible;
		fill: url(#ripple-gradient);
	  animation-name: ripple;
	  animation-duration: 2s;
	  animation-iteration-count: infinite;
	}
	.station-shadow.selected {
		filter: url(#selected-shadow);
		visibility: visible;
		fill: #fff !important;
	}
	rect.desk:not(.selected) {
	}
	rect.desk.selected {
		stroke-width: 20px;
		fill: #eee;
	}
	.larger.desk:not(.selected) {
		visibility: hidden;
	}
	 
	.floor {
		fill: #a7a7a7;
	}
	.desk.selected {
		z-index: 2;
	}
</style>

<filter id="selected-shadow" height="130%">
  <feGaussianBlur in="SourceAlpha" stdDeviation="10"/> 
  <feOffset dx="0" dy="0" result="offsetblur"/>
  <feComponentTransfer>
		<feFuncA type="linear" slope="0.5"/> 
  </feComponentTransfer>
  <feMerge>
    <feMergeNode/> 
    <feMergeNode in="SourceGraphic"/> 
  </feMerge>
</filter>
<clipPath id="p.0">
<path d="m0 0l1051.7218 0l0 745.48816l-1051.7218 0l0 -745.48816z" clip-rule="nonzero"/>
</clipPath>
<g clip-path="url(#p.0)">
<path class="floor" fill="#f3f3f3" d="m0 0l1051.7218 0l0 745.48816l-1051.7218 0z" fill-rule="evenodd"/>
<g id="struct">
	<path class="floor" stroke="#666666" stroke-width="12.0" stroke-linejoin="round" stroke-linecap="butt" d="m146.50096 22.475069l872.9764 0l0 661.98425l-872.9764 0z" fill-rule="evenodd"/>
	<path fill="#666666" d="m0 126.14173l193.35432 0l0 453.44885l-193.35432 0z" fill-rule="evenodd"/>
	<path stroke="#666666" stroke-width="1.0" stroke-linejoin="round" stroke-linecap="butt" d="m0 126.14173l193.35432 0l0 453.44885l-193.35432 0z" fill-rule="evenodd"/>
	<path fill="#666666" d="m0 -0.9527559l153.19685 0l0 31.874016l-153.19685 0z" fill-rule="evenodd"/>
	<path stroke="#666666" stroke-width="1.0" stroke-linejoin="round" stroke-linecap="butt" d="m0 -0.9527559l153.19685 0l0 31.874016l-153.19685 0z" fill-rule="evenodd"/>
	<path fill="#666666" d="m153.16798 678.4304l0 67.968506l-13.039368 0l0 -67.968506z" fill-rule="evenodd"/>
	<path fill="#666666" d="m153.16728 407.2021l0 201.51184l-13.039368 0l0 -201.51184z" fill-rule="evenodd"/>
	<path fill="#666666" d="m153.16728 109.88714l0 201.51181l-13.039368 0l0 -201.51181z" fill-rule="evenodd"/>
	<path fill="#666666" d="m153.16798 -0.9527559l0 41.66929l-13.039368 0l0 -41.66929z" fill-rule="evenodd"/>
	<path class="floor" fill="#efefef" d="m140 589 l0 90 l14 0 l0 -90z" />
	<path class="floor" fill="#efefef" d="m883 30 l41 0 l0 -20 l-41 0z" />
	<path class="floor" fill="#efefef" d="m140 40 l0 69 l13 0 l0 -69z" />
</g>
<text fill="#fff" font-family="monospace" font-size="26" font-weight="600" x="80" y="540">stage</text>

<g id="group-A" class="group">
	
	
	
  
  
	  
  
	<g class="desk desk-A-1 desk-A-2" id="desk-A-1-2" transform="translate(930, 500) rotate(90)">
		<rect class="desk desk-A-1 desk-A-2" fill="#ccc" x="0" y="0" width="90" height="56" />
		
		<circle class="station-shadow desk-A-1" fill="#fff" visibility="hidden" cx="24" cy="29" r="15" />
    
		  <circle class="station-shadow desk-A-2" fill="#fff" visibility="hidden" cx="64" cy="29" r="15" />
    
		<circle class="desk desk-A-1" fill="#decaa1" cx="24" cy="29" r="15" />
    
		  <circle class="desk desk-A-2" fill="#decaa1" cx="64" cy="29" r="15" />
    
		
		
			<text class="desk desk-A-1" fill="#000" text-anchor="middle" font-family="monospace" font-size="18" font-weight="400" x="-30" y="24" transform="rotate(-90)">1</text>
      
		  	<text class="desk desk-A-2" fill="#000" text-anchor="middle" font-family="monospace" font-size="18" font-weight="400" x="-30" y="64" transform="rotate(-90)">2</text>
      
		
	</g>
	
	
  
  
	  
  
	<g class="desk desk-A-3 desk-A-4" id="desk-A-3-4" transform="translate(930, 395) rotate(90)">
		<rect class="desk desk-A-3 desk-A-4" fill="#ccc" x="0" y="0" width="90" height="56" />
		
		<circle class="station-shadow desk-A-3" fill="#fff" visibility="hidden" cx="24" cy="29" r="15" />
    
		  <circle class="station-shadow desk-A-4" fill="#fff" visibility="hidden" cx="64" cy="29" r="15" />
    
		<circle class="desk desk-A-3" fill="#decaa1" cx="24" cy="29" r="15" />
    
		  <circle class="desk desk-A-4" fill="#decaa1" cx="64" cy="29" r="15" />
    
		
		
			<text class="desk desk-A-3" fill="#000" text-anchor="middle" font-family="monospace" font-size="18" font-weight="400" x="-30" y="24" transform="rotate(-90)">3</text>
      
		  	<text class="desk desk-A-4" fill="#000" text-anchor="middle" font-family="monospace" font-size="18" font-weight="400" x="-30" y="64" transform="rotate(-90)">4</text>
      
		
	</g>
	
	
  
  
	  
  
	<g class="desk desk-A-5 desk-A-6" id="desk-A-5-6" transform="translate(930, 290) rotate(90)">
		<rect class="desk desk-A-5 desk-A-6" fill="#ccc" x="0" y="0" width="90" height="56" />
		
		<circle class="station-shadow desk-A-5" fill="#fff" visibility="hidden" cx="24" cy="29" r="15" />
    
		  <circle class="station-shadow desk-A-6" fill="#fff" visibility="hidden" cx="64" cy="29" r="15" />
    
		<circle class="desk desk-A-5" fill="#decaa1" cx="24" cy="29" r="15" />
    
		  <circle class="desk desk-A-6" fill="#decaa1" cx="64" cy="29" r="15" />
    
		
		
			<text class="desk desk-A-5" fill="#000" text-anchor="middle" font-family="monospace" font-size="18" font-weight="400" x="-30" y="24" transform="rotate(-90)">5</text>
      
		  	<text class="desk desk-A-6" fill="#000" text-anchor="middle" font-family="monospace" font-size="18" font-weight="400" x="-30" y="64" transform="rotate(-90)">6</text>
      
		
	</g>
	
	
  
  
	  
  
	<g class="desk desk-A-7 desk-A-8" id="desk-A-7-8" transform="translate(930, 185) rotate(90)">
		<rect class="desk desk-A-7 desk-A-8" fill="#ccc" x="0" y="0" width="90" height="56" />
		
		<circle class="station-shadow desk-A-7" fill="#fff" visibility="hidden" cx="24" cy="29" r="15" />
    
		  <circle class="station-shadow desk-A-8" fill="#fff" visibility="hidden" cx="64" cy="29" r="15" />
    
		<circle class="desk desk-A-7" fill="#decaa1" cx="24" cy="29" r="15" />
    
		  <circle class="desk desk-A-8" fill="#decaa1" cx="64" cy="29" r="15" />
    
		
		
			<text class="desk desk-A-7" fill="#000" text-anchor="middle" font-family="monospace" font-size="18" font-weight="400" x="-30" y="24" transform="rotate(-90)">7</text>
      
		  	<text class="desk desk-A-8" fill="#000" text-anchor="middle" font-family="monospace" font-size="18" font-weight="400" x="-30" y="64" transform="rotate(-90)">8</text>
      
		
	</g>
	
	
  
  
	  
  
	<g class="desk desk-A-9 desk-A-10" id="desk-A-9-10" transform="translate(930, 80) rotate(90)">
		<rect class="desk desk-A-9 desk-A-10" fill="#ccc" x="0" y="0" width="90" height="56" />
		
		<circle class="station-shadow desk-A-9" fill="#fff" visibility="hidden" cx="24" cy="29" r="15" />
    
		  <circle class="station-shadow desk-A-10" fill="#fff" visibility="hidden" cx="64" cy="29" r="15" />
    
		<circle class="desk desk-A-9" fill="#decaa1" cx="24" cy="29" r="15" />
    
		  <circle class="desk desk-A-10" fill="#decaa1" cx="64" cy="29" r="15" />
    
		
		
			<text class="desk desk-A-9" fill="#000" text-anchor="middle" font-family="monospace" font-size="18" font-weight="400" x="-30" y="24" transform="rotate(-90)">9</text>
      
		  	<text class="desk desk-A-10" fill="#000" text-anchor="middle" font-family="monospace" font-size="18" font-weight="400" x="-30" y="64" transform="rotate(-90)">10</text>
      
		
	</g>
	
	
</g>

<g id="group-B" class="group">
	
	
	
  
  
	  
  
	<g class="desk desk-B-23 desk-B-24" id="desk-B-23-24" transform="translate(230, 620) rotate(0)">
		<rect class="desk desk-B-23 desk-B-24" fill="#ccc" x="0" y="0" width="90" height="56" />
		
		<circle class="station-shadow desk-B-23" fill="#fff" visibility="hidden" cx="24" cy="29" r="15" />
    
		  <circle class="station-shadow desk-B-24" fill="#fff" visibility="hidden" cx="64" cy="29" r="15" />
    
		<circle class="desk desk-B-23" fill="#93ead8" cx="24" cy="29" r="15" />
    
		  <circle class="desk desk-B-24" fill="#93ead8" cx="64" cy="29" r="15" />
    
		
		
			<text class="desk desk-B-23" fill="#000" text-anchor="middle" font-family="monospace" font-size="18" font-weight="400" x="24" y="30">23</text>
      
		  	<text class="desk desk-B-24" fill="#000" text-anchor="middle" font-family="monospace" font-size="18" font-weight="400" x="64" y="30">24</text>
      
		
	</g>
	
	
  
  
	  
  
	<g class="desk desk-B-25 desk-B-26" id="desk-B-25-26" transform="translate(335, 620) rotate(0)">
		<rect class="desk desk-B-25 desk-B-26" fill="#ccc" x="0" y="0" width="90" height="56" />
		
		<circle class="station-shadow desk-B-25" fill="#fff" visibility="hidden" cx="24" cy="29" r="15" />
    
		  <circle class="station-shadow desk-B-26" fill="#fff" visibility="hidden" cx="64" cy="29" r="15" />
    
		<circle class="desk desk-B-25" fill="#93ead8" cx="24" cy="29" r="15" />
    
		  <circle class="desk desk-B-26" fill="#93ead8" cx="64" cy="29" r="15" />
    
		
		
			<text class="desk desk-B-25" fill="#000" text-anchor="middle" font-family="monospace" font-size="18" font-weight="400" x="24" y="30">25</text>
      
		  	<text class="desk desk-B-26" fill="#000" text-anchor="middle" font-family="monospace" font-size="18" font-weight="400" x="64" y="30">26</text>
      
		
	</g>
	
	
  
  
	  
  
	<g class="desk desk-B-27 desk-B-28" id="desk-B-27-28" transform="translate(440, 620) rotate(0)">
		<rect class="desk desk-B-27 desk-B-28" fill="#ccc" x="0" y="0" width="90" height="56" />
		
		<circle class="station-shadow desk-B-27" fill="#fff" visibility="hidden" cx="24" cy="29" r="15" />
    
		  <circle class="station-shadow desk-B-28" fill="#fff" visibility="hidden" cx="64" cy="29" r="15" />
    
		<circle class="desk desk-B-27" fill="#93ead8" cx="24" cy="29" r="15" />
    
		  <circle class="desk desk-B-28" fill="#93ead8" cx="64" cy="29" r="15" />
    
		
		
			<text class="desk desk-B-27" fill="#000" text-anchor="middle" font-family="monospace" font-size="18" font-weight="400" x="24" y="30">27</text>
      
		  	<text class="desk desk-B-28" fill="#000" text-anchor="middle" font-family="monospace" font-size="18" font-weight="400" x="64" y="30">28</text>
      
		
	</g>
	
	
  
  
	  
  
	<g class="desk desk-B-29 desk-B-30" id="desk-B-29-30" transform="translate(545, 620) rotate(0)">
		<rect class="desk desk-B-29 desk-B-30" fill="#ccc" x="0" y="0" width="90" height="56" />
		
		<circle class="station-shadow desk-B-29" fill="#fff" visibility="hidden" cx="24" cy="29" r="15" />
    
		  <circle class="station-shadow desk-B-30" fill="#fff" visibility="hidden" cx="64" cy="29" r="15" />
    
		<circle class="desk desk-B-29" fill="#93ead8" cx="24" cy="29" r="15" />
    
		  <circle class="desk desk-B-30" fill="#93ead8" cx="64" cy="29" r="15" />
    
		
		
			<text class="desk desk-B-29" fill="#000" text-anchor="middle" font-family="monospace" font-size="18" font-weight="400" x="24" y="30">29</text>
      
		  	<text class="desk desk-B-30" fill="#000" text-anchor="middle" font-family="monospace" font-size="18" font-weight="400" x="64" y="30">30</text>
      
		
	</g>
	
	
  
  
	  
  
	<g class="desk desk-B-31 desk-B-32" id="desk-B-31-32" transform="translate(650, 620) rotate(0)">
		<rect class="desk desk-B-31 desk-B-32" fill="#ccc" x="0" y="0" width="90" height="56" />
		
		<circle class="station-shadow desk-B-31" fill="#fff" visibility="hidden" cx="24" cy="29" r="15" />
    
		  <circle class="station-shadow desk-B-32" fill="#fff" visibility="hidden" cx="64" cy="29" r="15" />
    
		<circle class="desk desk-B-31" fill="#93ead8" cx="24" cy="29" r="15" />
    
		  <circle class="desk desk-B-32" fill="#93ead8" cx="64" cy="29" r="15" />
    
		
		
			<text class="desk desk-B-31" fill="#000" text-anchor="middle" font-family="monospace" font-size="18" font-weight="400" x="24" y="30">31</text>
      
		  	<text class="desk desk-B-32" fill="#000" text-anchor="middle" font-family="monospace" font-size="18" font-weight="400" x="64" y="30">32</text>
      
		
	</g>
	
	
  
  
	  
  
	<g class="desk desk-B-33" id="desk-B-33" transform="translate(755, 620) rotate(0)">
		<rect class="desk desk-B-33" fill="#ccc" x="0" y="0" width="90" height="56" />
		
		<circle class="station-shadow desk-B-33" fill="#fff" visibility="hidden" cx="24" cy="29" r="15" />
    
		<circle class="desk desk-B-33" fill="#93ead8" cx="24" cy="29" r="15" />
    
		
		
			<text class="desk desk-B-33" fill="#000" text-anchor="middle" font-family="monospace" font-size="18" font-weight="400" x="24" y="30">33</text>
      
		
	</g>
	
	
</g>

<g id="group-C" class="group">
	
	
	
  
  
	  
  
	<g class="desk desk-C-54 desk-C-55" id="desk-C-54-55" transform="translate(346, 295) rotate(90)">
		<rect class="desk desk-C-54 desk-C-55" fill="#ccc" x="0" y="0" width="90" height="56" />
		
		<circle class="station-shadow desk-C-54" fill="#fff" visibility="hidden" cx="24" cy="29" r="15" />
    
		  <circle class="station-shadow desk-C-55" fill="#fff" visibility="hidden" cx="64" cy="29" r="15" />
    
		<circle class="desk desk-C-54" fill="#f1ee84" cx="24" cy="29" r="15" />
    
		  <circle class="desk desk-C-55" fill="#f1ee84" cx="64" cy="29" r="15" />
    
		
		
			<text class="desk desk-C-54" fill="#000" text-anchor="middle" font-family="monospace" font-size="18" font-weight="400" x="-30" y="24" transform="rotate(-90)">54</text>
      
		  	<text class="desk desk-C-55" fill="#000" text-anchor="middle" font-family="monospace" font-size="18" font-weight="400" x="-30" y="64" transform="rotate(-90)">55</text>
      
		
	</g>
	
	
  
  
	  
  
	<g class="desk desk-C-56 desk-C-57" id="desk-C-56-57" transform="translate(346, 385) rotate(90)">
		<rect class="desk desk-C-56 desk-C-57" fill="#ccc" x="0" y="0" width="90" height="56" />
		
		<circle class="station-shadow desk-C-56" fill="#fff" visibility="hidden" cx="24" cy="29" r="15" />
    
		  <circle class="station-shadow desk-C-57" fill="#fff" visibility="hidden" cx="64" cy="29" r="15" />
    
		<circle class="desk desk-C-56" fill="#f1ee84" cx="24" cy="29" r="15" />
    
		  <circle class="desk desk-C-57" fill="#f1ee84" cx="64" cy="29" r="15" />
    
		
		
			<text class="desk desk-C-56" fill="#000" text-anchor="middle" font-family="monospace" font-size="18" font-weight="400" x="-30" y="24" transform="rotate(-90)">56</text>
      
		  	<text class="desk desk-C-57" fill="#000" text-anchor="middle" font-family="monospace" font-size="18" font-weight="400" x="-30" y="64" transform="rotate(-90)">57</text>
      
		
	</g>
	
	
  
  
	  
  
	<g class="desk desk-C-58 desk-C-59" id="desk-C-58-59" transform="translate(380, 475) rotate(0)">
		<rect class="desk desk-C-58 desk-C-59" fill="#ccc" x="0" y="0" width="90" height="56" />
		
		<circle class="station-shadow desk-C-58" fill="#fff" visibility="hidden" cx="24" cy="29" r="15" />
    
		  <circle class="station-shadow desk-C-59" fill="#fff" visibility="hidden" cx="64" cy="29" r="15" />
    
		<circle class="desk desk-C-58" fill="#f1ee84" cx="24" cy="29" r="15" />
    
		  <circle class="desk desk-C-59" fill="#f1ee84" cx="64" cy="29" r="15" />
    
		
		
			<text class="desk desk-C-58" fill="#000" text-anchor="middle" font-family="monospace" font-size="18" font-weight="400" x="24" y="30">58</text>
      
		  	<text class="desk desk-C-59" fill="#000" text-anchor="middle" font-family="monospace" font-size="18" font-weight="400" x="64" y="30">59</text>
      
		
	</g>
	
	
  
  
	  
  
	<g class="desk desk-C-60 desk-C-61" id="desk-C-60-61" transform="translate(290, 475) rotate(0)">
		<rect class="desk desk-C-60 desk-C-61" fill="#ccc" x="0" y="0" width="90" height="56" />
		
		<circle class="station-shadow desk-C-60" fill="#fff" visibility="hidden" cx="24" cy="29" r="15" />
    
		  <circle class="station-shadow desk-C-61" fill="#fff" visibility="hidden" cx="64" cy="29" r="15" />
    
		<circle class="desk desk-C-60" fill="#f1ee84" cx="24" cy="29" r="15" />
    
		  <circle class="desk desk-C-61" fill="#f1ee84" cx="64" cy="29" r="15" />
    
		
		
			<text class="desk desk-C-60" fill="#000" text-anchor="middle" font-family="monospace" font-size="18" font-weight="400" x="24" y="30">60</text>
      
		  	<text class="desk desk-C-61" fill="#000" text-anchor="middle" font-family="monospace" font-size="18" font-weight="400" x="64" y="30">61</text>
      
		
	</g>
	
	
  
  
	  
  
	<g class="desk desk-C-62 desk-C-63" id="desk-C-62-63" transform="translate(414, 385) rotate(-90)">
		<rect class="desk desk-C-62 desk-C-63" fill="#ccc" x="0" y="0" width="90" height="56" />
		
		<circle class="station-shadow desk-C-62" fill="#fff" visibility="hidden" cx="24" cy="29" r="15" />
    
		  <circle class="station-shadow desk-C-63" fill="#fff" visibility="hidden" cx="64" cy="29" r="15" />
    
		<circle class="desk desk-C-62" fill="#f1ee84" cx="24" cy="29" r="15" />
    
		  <circle class="desk desk-C-63" fill="#f1ee84" cx="64" cy="29" r="15" />
    
		
		
			<text class="desk desk-C-62" fill="#000" text-anchor="middle" font-family="monospace" font-size="18" font-weight="400" x="30" y="-24" transform="rotate(90)">62</text>
      
		  	<text class="desk desk-C-63" fill="#000" text-anchor="middle" font-family="monospace" font-size="18" font-weight="400" x="30" y="-64" transform="rotate(90)">63</text>
      
		
	</g>
	
	
  
  
	  
  
	<g class="desk desk-C-64 desk-C-65" id="desk-C-64-65" transform="translate(414, 475) rotate(-90)">
		<rect class="desk desk-C-64 desk-C-65" fill="#ccc" x="0" y="0" width="90" height="56" />
		
		<circle class="station-shadow desk-C-64" fill="#fff" visibility="hidden" cx="24" cy="29" r="15" />
    
		  <circle class="station-shadow desk-C-65" fill="#fff" visibility="hidden" cx="64" cy="29" r="15" />
    
		<circle class="desk desk-C-64" fill="#f1ee84" cx="24" cy="29" r="15" />
    
		  <circle class="desk desk-C-65" fill="#f1ee84" cx="64" cy="29" r="15" />
    
		
		
			<text class="desk desk-C-64" fill="#000" text-anchor="middle" font-family="monospace" font-size="18" font-weight="400" x="30" y="-24" transform="rotate(90)">64</text>
      
		  	<text class="desk desk-C-65" fill="#000" text-anchor="middle" font-family="monospace" font-size="18" font-weight="400" x="30" y="-64" transform="rotate(90)">65</text>
      
		
	</g>
	
	
  
  
	  
  
	<g class="desk desk-C-52 desk-C-53" id="desk-C-52-53" transform="translate(380, 240) rotate(0)">
		<rect class="desk desk-C-52 desk-C-53" fill="#ccc" x="0" y="0" width="90" height="56" />
		
		<circle class="station-shadow desk-C-52" fill="#fff" visibility="hidden" cx="24" cy="29" r="15" />
    
		  <circle class="station-shadow desk-C-53" fill="#fff" visibility="hidden" cx="64" cy="29" r="15" />
    
		<circle class="desk desk-C-52" fill="#f1ee84" cx="24" cy="29" r="15" />
    
		  <circle class="desk desk-C-53" fill="#f1ee84" cx="64" cy="29" r="15" />
    
		
		
			<text class="desk desk-C-52" fill="#000" text-anchor="middle" font-family="monospace" font-size="18" font-weight="400" x="24" y="30">52</text>
      
		  	<text class="desk desk-C-53" fill="#000" text-anchor="middle" font-family="monospace" font-size="18" font-weight="400" x="64" y="30">53</text>
      
		
	</g>
	
	
  
  
	  
  
	<g class="desk desk-C-50 desk-C-51" id="desk-C-50-51" transform="translate(290, 240) rotate(0)">
		<rect class="desk desk-C-50 desk-C-51" fill="#ccc" x="0" y="0" width="90" height="56" />
		
		<circle class="station-shadow desk-C-50" fill="#fff" visibility="hidden" cx="24" cy="29" r="15" />
    
		  <circle class="station-shadow desk-C-51" fill="#fff" visibility="hidden" cx="64" cy="29" r="15" />
    
		<circle class="desk desk-C-50" fill="#f1ee84" cx="24" cy="29" r="15" />
    
		  <circle class="desk desk-C-51" fill="#f1ee84" cx="64" cy="29" r="15" />
    
		
		
			<text class="desk desk-C-50" fill="#000" text-anchor="middle" font-family="monospace" font-size="18" font-weight="400" x="24" y="30">50</text>
      
		  	<text class="desk desk-C-51" fill="#000" text-anchor="middle" font-family="monospace" font-size="18" font-weight="400" x="64" y="30">51</text>
      
		
	</g>
	
	
</g>

<g id="group-D" class="group">
	
	
	
  
  
	  
  
	<g class="desk desk-D-34 desk-D-35" id="desk-D-34-35" transform="translate(686, 385) rotate(90)">
		<rect class="desk desk-D-34 desk-D-35" fill="#ccc" x="0" y="0" width="90" height="56" />
		
		<circle class="station-shadow desk-D-34" fill="#fff" visibility="hidden" cx="24" cy="29" r="15" />
    
		  <circle class="station-shadow desk-D-35" fill="#fff" visibility="hidden" cx="64" cy="29" r="15" />
    
		<circle class="desk desk-D-34" fill="#9de1b7" cx="24" cy="29" r="15" />
    
		  <circle class="desk desk-D-35" fill="#9de1b7" cx="64" cy="29" r="15" />
    
		
		
			<text class="desk desk-D-34" fill="#000" text-anchor="middle" font-family="monospace" font-size="18" font-weight="400" x="-30" y="24" transform="rotate(-90)">34</text>
      
		  	<text class="desk desk-D-35" fill="#000" text-anchor="middle" font-family="monospace" font-size="18" font-weight="400" x="-30" y="64" transform="rotate(-90)">35</text>
      
		
	</g>
	
	
  
  
	  
  
	<g class="desk desk-D-36 desk-D-37" id="desk-D-36-37" transform="translate(720, 475) rotate(0)">
		<rect class="desk desk-D-36 desk-D-37" fill="#ccc" x="0" y="0" width="90" height="56" />
		
		<circle class="station-shadow desk-D-36" fill="#fff" visibility="hidden" cx="24" cy="29" r="15" />
    
		  <circle class="station-shadow desk-D-37" fill="#fff" visibility="hidden" cx="64" cy="29" r="15" />
    
		<circle class="desk desk-D-36" fill="#9de1b7" cx="24" cy="29" r="15" />
    
		  <circle class="desk desk-D-37" fill="#9de1b7" cx="64" cy="29" r="15" />
    
		
		
			<text class="desk desk-D-36" fill="#000" text-anchor="middle" font-family="monospace" font-size="18" font-weight="400" x="24" y="30">36</text>
      
		  	<text class="desk desk-D-37" fill="#000" text-anchor="middle" font-family="monospace" font-size="18" font-weight="400" x="64" y="30">37</text>
      
		
	</g>
	
	
  
  
	  
  
	<g class="desk desk-D-38 desk-D-39" id="desk-D-38-39" transform="translate(630, 475) rotate(0)">
		<rect class="desk desk-D-38 desk-D-39" fill="#ccc" x="0" y="0" width="90" height="56" />
		
		<circle class="station-shadow desk-D-38" fill="#fff" visibility="hidden" cx="24" cy="29" r="15" />
    
		  <circle class="station-shadow desk-D-39" fill="#fff" visibility="hidden" cx="64" cy="29" r="15" />
    
		<circle class="desk desk-D-38" fill="#9de1b7" cx="24" cy="29" r="15" />
    
		  <circle class="desk desk-D-39" fill="#9de1b7" cx="64" cy="29" r="15" />
    
		
		
			<text class="desk desk-D-38" fill="#000" text-anchor="middle" font-family="monospace" font-size="18" font-weight="400" x="24" y="30">38</text>
      
		  	<text class="desk desk-D-39" fill="#000" text-anchor="middle" font-family="monospace" font-size="18" font-weight="400" x="64" y="30">39</text>
      
		
	</g>
	
	
  
  
	  
  
	<g class="desk desk-D-40 desk-D-41" id="desk-D-40-41" transform="translate(754, 385) rotate(-90)">
		<rect class="desk desk-D-40 desk-D-41" fill="#ccc" x="0" y="0" width="90" height="56" />
		
		<circle class="station-shadow desk-D-40" fill="#fff" visibility="hidden" cx="24" cy="29" r="15" />
    
		  <circle class="station-shadow desk-D-41" fill="#fff" visibility="hidden" cx="64" cy="29" r="15" />
    
		<circle class="desk desk-D-40" fill="#9de1b7" cx="24" cy="29" r="15" />
    
		  <circle class="desk desk-D-41" fill="#9de1b7" cx="64" cy="29" r="15" />
    
		
		
			<text class="desk desk-D-40" fill="#000" text-anchor="middle" font-family="monospace" font-size="18" font-weight="400" x="30" y="-24" transform="rotate(90)">40</text>
      
		  	<text class="desk desk-D-41" fill="#000" text-anchor="middle" font-family="monospace" font-size="18" font-weight="400" x="30" y="-64" transform="rotate(90)">41</text>
      
		
	</g>
	
	
  
  
	  
  
	<g class="desk desk-D-42 desk-D-43" id="desk-D-42-43" transform="translate(754, 475) rotate(-90)">
		<rect class="desk desk-D-42 desk-D-43" fill="#ccc" x="0" y="0" width="90" height="56" />
		
		<circle class="station-shadow desk-D-42" fill="#fff" visibility="hidden" cx="24" cy="29" r="15" />
    
		  <circle class="station-shadow desk-D-43" fill="#fff" visibility="hidden" cx="64" cy="29" r="15" />
    
		<circle class="desk desk-D-42" fill="#9de1b7" cx="24" cy="29" r="15" />
    
		  <circle class="desk desk-D-43" fill="#9de1b7" cx="64" cy="29" r="15" />
    
		
		
			<text class="desk desk-D-42" fill="#000" text-anchor="middle" font-family="monospace" font-size="18" font-weight="400" x="30" y="-24" transform="rotate(90)">42</text>
      
		  	<text class="desk desk-D-43" fill="#000" text-anchor="middle" font-family="monospace" font-size="18" font-weight="400" x="30" y="-64" transform="rotate(90)">43</text>
      
		
	</g>
	
	
  
  
	  
  
	<g class="desk desk-D-44 desk-D-45" id="desk-D-44-45" transform="translate(686, 295) rotate(90)">
		<rect class="desk desk-D-44 desk-D-45" fill="#ccc" x="0" y="0" width="90" height="56" />
		
		<circle class="station-shadow desk-D-44" fill="#fff" visibility="hidden" cx="24" cy="29" r="15" />
    
		  <circle class="station-shadow desk-D-45" fill="#fff" visibility="hidden" cx="64" cy="29" r="15" />
    
		<circle class="desk desk-D-44" fill="#9de1b7" cx="24" cy="29" r="15" />
    
		  <circle class="desk desk-D-45" fill="#9de1b7" cx="64" cy="29" r="15" />
    
		
		
			<text class="desk desk-D-44" fill="#000" text-anchor="middle" font-family="monospace" font-size="18" font-weight="400" x="-30" y="24" transform="rotate(-90)">44</text>
      
		  	<text class="desk desk-D-45" fill="#000" text-anchor="middle" font-family="monospace" font-size="18" font-weight="400" x="-30" y="64" transform="rotate(-90)">45</text>
      
		
	</g>
	
	
  
  
	  
  
	<g class="desk desk-D-46 desk-D-47" id="desk-D-46-47" transform="translate(630, 240) rotate(0)">
		<rect class="desk desk-D-46 desk-D-47" fill="#ccc" x="0" y="0" width="90" height="56" />
		
		<circle class="station-shadow desk-D-46" fill="#fff" visibility="hidden" cx="24" cy="29" r="15" />
    
		  <circle class="station-shadow desk-D-47" fill="#fff" visibility="hidden" cx="64" cy="29" r="15" />
    
		<circle class="desk desk-D-46" fill="#9de1b7" cx="24" cy="29" r="15" />
    
		  <circle class="desk desk-D-47" fill="#9de1b7" cx="64" cy="29" r="15" />
    
		
		
			<text class="desk desk-D-46" fill="#000" text-anchor="middle" font-family="monospace" font-size="18" font-weight="400" x="24" y="30">46</text>
      
		  	<text class="desk desk-D-47" fill="#000" text-anchor="middle" font-family="monospace" font-size="18" font-weight="400" x="64" y="30">47</text>
      
		
	</g>
	
	
  
  
	  
  
	<g class="desk desk-D-48 desk-D-49" id="desk-D-48-49" transform="translate(720, 240) rotate(0)">
		<rect class="desk desk-D-48 desk-D-49" fill="#ccc" x="0" y="0" width="90" height="56" />
		
		<circle class="station-shadow desk-D-48" fill="#fff" visibility="hidden" cx="24" cy="29" r="15" />
    
		  <circle class="station-shadow desk-D-49" fill="#fff" visibility="hidden" cx="64" cy="29" r="15" />
    
		<circle class="desk desk-D-48" fill="#9de1b7" cx="24" cy="29" r="15" />
    
		  <circle class="desk desk-D-49" fill="#9de1b7" cx="64" cy="29" r="15" />
    
		
		
			<text class="desk desk-D-48" fill="#000" text-anchor="middle" font-family="monospace" font-size="18" font-weight="400" x="24" y="30">48</text>
      
		  	<text class="desk desk-D-49" fill="#000" text-anchor="middle" font-family="monospace" font-size="18" font-weight="400" x="64" y="30">49</text>
      
		
	</g>
	
	
</g>

<g id="group-E" class="group">
	
	
	
  
  
	  
  
	<g class="desk desk-E-11 desk-E-12" id="desk-E-11-12" transform="translate(230, 50) rotate(0)">
		<rect class="desk desk-E-11 desk-E-12" fill="#ccc" x="0" y="0" width="90" height="56" />
		
		<circle class="station-shadow desk-E-11" fill="#fff" visibility="hidden" cx="24" cy="29" r="15" />
    
		  <circle class="station-shadow desk-E-12" fill="#fff" visibility="hidden" cx="64" cy="29" r="15" />
    
		<circle class="desk desk-E-11" fill="#cab5b7" cx="24" cy="29" r="15" />
    
		  <circle class="desk desk-E-12" fill="#cab5b7" cx="64" cy="29" r="15" />
    
		
		
			<text class="desk desk-E-11" fill="#000" text-anchor="middle" font-family="monospace" font-size="18" font-weight="400" x="24" y="30">11</text>
      
		  	<text class="desk desk-E-12" fill="#000" text-anchor="middle" font-family="monospace" font-size="18" font-weight="400" x="64" y="30">12</text>
      
		
	</g>
	
	
  
  
	  
  
	<g class="desk desk-E-13 desk-E-14" id="desk-E-13-14" transform="translate(335, 50) rotate(0)">
		<rect class="desk desk-E-13 desk-E-14" fill="#ccc" x="0" y="0" width="90" height="56" />
		
		<circle class="station-shadow desk-E-13" fill="#fff" visibility="hidden" cx="24" cy="29" r="15" />
    
		  <circle class="station-shadow desk-E-14" fill="#fff" visibility="hidden" cx="64" cy="29" r="15" />
    
		<circle class="desk desk-E-13" fill="#cab5b7" cx="24" cy="29" r="15" />
    
		  <circle class="desk desk-E-14" fill="#cab5b7" cx="64" cy="29" r="15" />
    
		
		
			<text class="desk desk-E-13" fill="#000" text-anchor="middle" font-family="monospace" font-size="18" font-weight="400" x="24" y="30">13</text>
      
		  	<text class="desk desk-E-14" fill="#000" text-anchor="middle" font-family="monospace" font-size="18" font-weight="400" x="64" y="30">14</text>
      
		
	</g>
	
	
  
  
	  
  
	<g class="desk desk-E-15 desk-E-16" id="desk-E-15-16" transform="translate(440, 50) rotate(0)">
		<rect class="desk desk-E-15 desk-E-16" fill="#ccc" x="0" y="0" width="90" height="56" />
		
		<circle class="station-shadow desk-E-15" fill="#fff" visibility="hidden" cx="24" cy="29" r="15" />
    
		  <circle class="station-shadow desk-E-16" fill="#fff" visibility="hidden" cx="64" cy="29" r="15" />
    
		<circle class="desk desk-E-15" fill="#cab5b7" cx="24" cy="29" r="15" />
    
		  <circle class="desk desk-E-16" fill="#cab5b7" cx="64" cy="29" r="15" />
    
		
		
			<text class="desk desk-E-15" fill="#000" text-anchor="middle" font-family="monospace" font-size="18" font-weight="400" x="24" y="30">15</text>
      
		  	<text class="desk desk-E-16" fill="#000" text-anchor="middle" font-family="monospace" font-size="18" font-weight="400" x="64" y="30">16</text>
      
		
	</g>
	
	
  
  
	  
  
	<g class="desk desk-E-17 desk-E-18" id="desk-E-17-18" transform="translate(545, 50) rotate(0)">
		<rect class="desk desk-E-17 desk-E-18" fill="#ccc" x="0" y="0" width="90" height="56" />
		
		<circle class="station-shadow desk-E-17" fill="#fff" visibility="hidden" cx="24" cy="29" r="15" />
    
		  <circle class="station-shadow desk-E-18" fill="#fff" visibility="hidden" cx="64" cy="29" r="15" />
    
		<circle class="desk desk-E-17" fill="#cab5b7" cx="24" cy="29" r="15" />
    
		  <circle class="desk desk-E-18" fill="#cab5b7" cx="64" cy="29" r="15" />
    
		
		
			<text class="desk desk-E-17" fill="#000" text-anchor="middle" font-family="monospace" font-size="18" font-weight="400" x="24" y="30">17</text>
      
		  	<text class="desk desk-E-18" fill="#000" text-anchor="middle" font-family="monospace" font-size="18" font-weight="400" x="64" y="30">18</text>
      
		
	</g>
	
	
  
  
	  
  
	<g class="desk desk-E-19 desk-E-20" id="desk-E-19-20" transform="translate(650, 50) rotate(0)">
		<rect class="desk desk-E-19 desk-E-20" fill="#ccc" x="0" y="0" width="90" height="56" />
		
		<circle class="station-shadow desk-E-19" fill="#fff" visibility="hidden" cx="24" cy="29" r="15" />
    
		  <circle class="station-shadow desk-E-20" fill="#fff" visibility="hidden" cx="64" cy="29" r="15" />
    
		<circle class="desk desk-E-19" fill="#cab5b7" cx="24" cy="29" r="15" />
    
		  <circle class="desk desk-E-20" fill="#cab5b7" cx="64" cy="29" r="15" />
    
		
		
			<text class="desk desk-E-19" fill="#000" text-anchor="middle" font-family="monospace" font-size="18" font-weight="400" x="24" y="30">19</text>
      
		  	<text class="desk desk-E-20" fill="#000" text-anchor="middle" font-family="monospace" font-size="18" font-weight="400" x="64" y="30">20</text>
      
		
	</g>
	
	
  
  
	  
  
	<g class="desk desk-E-21 desk-E-22" id="desk-E-21-22" transform="translate(755, 50) rotate(0)">
		<rect class="desk desk-E-21 desk-E-22" fill="#ccc" x="0" y="0" width="90" height="56" />
		
		<circle class="station-shadow desk-E-21" fill="#fff" visibility="hidden" cx="24" cy="29" r="15" />
    
		  <circle class="station-shadow desk-E-22" fill="#fff" visibility="hidden" cx="64" cy="29" r="15" />
    
		<circle class="desk desk-E-21" fill="#cab5b7" cx="24" cy="29" r="15" />
    
		  <circle class="desk desk-E-22" fill="#cab5b7" cx="64" cy="29" r="15" />
    
		
		
			<text class="desk desk-E-21" fill="#000" text-anchor="middle" font-family="monospace" font-size="18" font-weight="400" x="24" y="30">21</text>
      
		  	<text class="desk desk-E-22" fill="#000" text-anchor="middle" font-family="monospace" font-size="18" font-weight="400" x="64" y="30">22</text>
      
		
	</g>
	
	
</g>

<g id="larger" style="visibility: hidden;">
	
	
		
		
			
      
      
	      
      
			<g class="desk desk-A-1 desk-A-2" id="desk-A-1-2" transform="translate(930, 500) rotate(90)">
				<rect id="desk-larger-A" class="desk larger desk-A-1 desk-A-2" fill="#ccc" x="-45" y="-28" width="180" height="112" />
				<circle class="ripple desk-A-1" fill="#fff" visibility="hidden" cx="24" cy="29" r="15" />
        
				  <circle class="ripple desk-A-2" fill="#fff" visibility="hidden" cx="64" cy="29" r="15" />
        
			</g>
		
			
      
      
	      
      
			<g class="desk desk-A-3 desk-A-4" id="desk-A-3-4" transform="translate(930, 395) rotate(90)">
				<rect id="desk-larger-A" class="desk larger desk-A-3 desk-A-4" fill="#ccc" x="-45" y="-28" width="180" height="112" />
				<circle class="ripple desk-A-3" fill="#fff" visibility="hidden" cx="24" cy="29" r="15" />
        
				  <circle class="ripple desk-A-4" fill="#fff" visibility="hidden" cx="64" cy="29" r="15" />
        
			</g>
		
			
      
      
	      
      
			<g class="desk desk-A-5 desk-A-6" id="desk-A-5-6" transform="translate(930, 290) rotate(90)">
				<rect id="desk-larger-A" class="desk larger desk-A-5 desk-A-6" fill="#ccc" x="-45" y="-28" width="180" height="112" />
				<circle class="ripple desk-A-5" fill="#fff" visibility="hidden" cx="24" cy="29" r="15" />
        
				  <circle class="ripple desk-A-6" fill="#fff" visibility="hidden" cx="64" cy="29" r="15" />
        
			</g>
		
			
      
      
	      
      
			<g class="desk desk-A-7 desk-A-8" id="desk-A-7-8" transform="translate(930, 185) rotate(90)">
				<rect id="desk-larger-A" class="desk larger desk-A-7 desk-A-8" fill="#ccc" x="-45" y="-28" width="180" height="112" />
				<circle class="ripple desk-A-7" fill="#fff" visibility="hidden" cx="24" cy="29" r="15" />
        
				  <circle class="ripple desk-A-8" fill="#fff" visibility="hidden" cx="64" cy="29" r="15" />
        
			</g>
		
			
      
      
	      
      
			<g class="desk desk-A-9 desk-A-10" id="desk-A-9-10" transform="translate(930, 80) rotate(90)">
				<rect id="desk-larger-A" class="desk larger desk-A-9 desk-A-10" fill="#ccc" x="-45" y="-28" width="180" height="112" />
				<circle class="ripple desk-A-9" fill="#fff" visibility="hidden" cx="24" cy="29" r="15" />
        
				  <circle class="ripple desk-A-10" fill="#fff" visibility="hidden" cx="64" cy="29" r="15" />
        
			</g>
		
	
		
		
			
      
      
	      
      
			<g class="desk desk-B-23 desk-B-24" id="desk-B-23-24" transform="translate(230, 620) rotate(0)">
				<rect id="desk-larger-B" class="desk larger desk-B-23 desk-B-24" fill="#ccc" x="-45" y="-28" width="180" height="112" />
				<circle class="ripple desk-B-23" fill="#fff" visibility="hidden" cx="24" cy="29" r="15" />
        
				  <circle class="ripple desk-B-24" fill="#fff" visibility="hidden" cx="64" cy="29" r="15" />
        
			</g>
		
			
      
      
	      
      
			<g class="desk desk-B-25 desk-B-26" id="desk-B-25-26" transform="translate(335, 620) rotate(0)">
				<rect id="desk-larger-B" class="desk larger desk-B-25 desk-B-26" fill="#ccc" x="-45" y="-28" width="180" height="112" />
				<circle class="ripple desk-B-25" fill="#fff" visibility="hidden" cx="24" cy="29" r="15" />
        
				  <circle class="ripple desk-B-26" fill="#fff" visibility="hidden" cx="64" cy="29" r="15" />
        
			</g>
		
			
      
      
	      
      
			<g class="desk desk-B-27 desk-B-28" id="desk-B-27-28" transform="translate(440, 620) rotate(0)">
				<rect id="desk-larger-B" class="desk larger desk-B-27 desk-B-28" fill="#ccc" x="-45" y="-28" width="180" height="112" />
				<circle class="ripple desk-B-27" fill="#fff" visibility="hidden" cx="24" cy="29" r="15" />
        
				  <circle class="ripple desk-B-28" fill="#fff" visibility="hidden" cx="64" cy="29" r="15" />
        
			</g>
		
			
      
      
	      
      
			<g class="desk desk-B-29 desk-B-30" id="desk-B-29-30" transform="translate(545, 620) rotate(0)">
				<rect id="desk-larger-B" class="desk larger desk-B-29 desk-B-30" fill="#ccc" x="-45" y="-28" width="180" height="112" />
				<circle class="ripple desk-B-29" fill="#fff" visibility="hidden" cx="24" cy="29" r="15" />
        
				  <circle class="ripple desk-B-30" fill="#fff" visibility="hidden" cx="64" cy="29" r="15" />
        
			</g>
		
			
      
      
	      
      
			<g class="desk desk-B-31 desk-B-32" id="desk-B-31-32" transform="translate(650, 620) rotate(0)">
				<rect id="desk-larger-B" class="desk larger desk-B-31 desk-B-32" fill="#ccc" x="-45" y="-28" width="180" height="112" />
				<circle class="ripple desk-B-31" fill="#fff" visibility="hidden" cx="24" cy="29" r="15" />
        
				  <circle class="ripple desk-B-32" fill="#fff" visibility="hidden" cx="64" cy="29" r="15" />
        
			</g>
		
			
      
      
	      
      
			<g class="desk desk-B-33" id="desk-B-33" transform="translate(755, 620) rotate(0)">
				<rect id="desk-larger-B" class="desk larger desk-B-33" fill="#ccc" x="-45" y="-28" width="180" height="112" />
				<circle class="ripple desk-B-33" fill="#fff" visibility="hidden" cx="24" cy="29" r="15" />
        
			</g>
		
	
		
		
			
      
      
	      
      
			<g class="desk desk-C-54 desk-C-55" id="desk-C-54-55" transform="translate(346, 295) rotate(90)">
				<rect id="desk-larger-C" class="desk larger desk-C-54 desk-C-55" fill="#ccc" x="-45" y="-28" width="180" height="112" />
				<circle class="ripple desk-C-54" fill="#fff" visibility="hidden" cx="24" cy="29" r="15" />
        
				  <circle class="ripple desk-C-55" fill="#fff" visibility="hidden" cx="64" cy="29" r="15" />
        
			</g>
		
			
      
      
	      
      
			<g class="desk desk-C-56 desk-C-57" id="desk-C-56-57" transform="translate(346, 385) rotate(90)">
				<rect id="desk-larger-C" class="desk larger desk-C-56 desk-C-57" fill="#ccc" x="-45" y="-28" width="180" height="112" />
				<circle class="ripple desk-C-56" fill="#fff" visibility="hidden" cx="24" cy="29" r="15" />
        
				  <circle class="ripple desk-C-57" fill="#fff" visibility="hidden" cx="64" cy="29" r="15" />
        
			</g>
		
			
      
      
	      
      
			<g class="desk desk-C-58 desk-C-59" id="desk-C-58-59" transform="translate(380, 475) rotate(0)">
				<rect id="desk-larger-C" class="desk larger desk-C-58 desk-C-59" fill="#ccc" x="-45" y="-28" width="180" height="112" />
				<circle class="ripple desk-C-58" fill="#fff" visibility="hidden" cx="24" cy="29" r="15" />
        
				  <circle class="ripple desk-C-59" fill="#fff" visibility="hidden" cx="64" cy="29" r="15" />
        
			</g>
		
			
      
      
	      
      
			<g class="desk desk-C-60 desk-C-61" id="desk-C-60-61" transform="translate(290, 475) rotate(0)">
				<rect id="desk-larger-C" class="desk larger desk-C-60 desk-C-61" fill="#ccc" x="-45" y="-28" width="180" height="112" />
				<circle class="ripple desk-C-60" fill="#fff" visibility="hidden" cx="24" cy="29" r="15" />
        
				  <circle class="ripple desk-C-61" fill="#fff" visibility="hidden" cx="64" cy="29" r="15" />
        
			</g>
		
			
      
      
	      
      
			<g class="desk desk-C-62 desk-C-63" id="desk-C-62-63" transform="translate(414, 385) rotate(-90)">
				<rect id="desk-larger-C" class="desk larger desk-C-62 desk-C-63" fill="#ccc" x="-45" y="-28" width="180" height="112" />
				<circle class="ripple desk-C-62" fill="#fff" visibility="hidden" cx="24" cy="29" r="15" />
        
				  <circle class="ripple desk-C-63" fill="#fff" visibility="hidden" cx="64" cy="29" r="15" />
        
			</g>
		
			
      
      
	      
      
			<g class="desk desk-C-64 desk-C-65" id="desk-C-64-65" transform="translate(414, 475) rotate(-90)">
				<rect id="desk-larger-C" class="desk larger desk-C-64 desk-C-65" fill="#ccc" x="-45" y="-28" width="180" height="112" />
				<circle class="ripple desk-C-64" fill="#fff" visibility="hidden" cx="24" cy="29" r="15" />
        
				  <circle class="ripple desk-C-65" fill="#fff" visibility="hidden" cx="64" cy="29" r="15" />
        
			</g>
		
			
      
      
	      
      
			<g class="desk desk-C-52 desk-C-53" id="desk-C-52-53" transform="translate(380, 240) rotate(0)">
				<rect id="desk-larger-C" class="desk larger desk-C-52 desk-C-53" fill="#ccc" x="-45" y="-28" width="180" height="112" />
				<circle class="ripple desk-C-52" fill="#fff" visibility="hidden" cx="24" cy="29" r="15" />
        
				  <circle class="ripple desk-C-53" fill="#fff" visibility="hidden" cx="64" cy="29" r="15" />
        
			</g>
		
			
      
      
	      
      
			<g class="desk desk-C-50 desk-C-51" id="desk-C-50-51" transform="translate(290, 240) rotate(0)">
				<rect id="desk-larger-C" class="desk larger desk-C-50 desk-C-51" fill="#ccc" x="-45" y="-28" width="180" height="112" />
				<circle class="ripple desk-C-50" fill="#fff" visibility="hidden" cx="24" cy="29" r="15" />
        
				  <circle class="ripple desk-C-51" fill="#fff" visibility="hidden" cx="64" cy="29" r="15" />
        
			</g>
		
	
		
		
			
      
      
	      
      
			<g class="desk desk-D-34 desk-D-35" id="desk-D-34-35" transform="translate(686, 385) rotate(90)">
				<rect id="desk-larger-D" class="desk larger desk-D-34 desk-D-35" fill="#ccc" x="-45" y="-28" width="180" height="112" />
				<circle class="ripple desk-D-34" fill="#fff" visibility="hidden" cx="24" cy="29" r="15" />
        
				  <circle class="ripple desk-D-35" fill="#fff" visibility="hidden" cx="64" cy="29" r="15" />
        
			</g>
		
			
      
      
	      
      
			<g class="desk desk-D-36 desk-D-37" id="desk-D-36-37" transform="translate(720, 475) rotate(0)">
				<rect id="desk-larger-D" class="desk larger desk-D-36 desk-D-37" fill="#ccc" x="-45" y="-28" width="180" height="112" />
				<circle class="ripple desk-D-36" fill="#fff" visibility="hidden" cx="24" cy="29" r="15" />
        
				  <circle class="ripple desk-D-37" fill="#fff" visibility="hidden" cx="64" cy="29" r="15" />
        
			</g>
		
			
      
      
	      
      
			<g class="desk desk-D-38 desk-D-39" id="desk-D-38-39" transform="translate(630, 475) rotate(0)">
				<rect id="desk-larger-D" class="desk larger desk-D-38 desk-D-39" fill="#ccc" x="-45" y="-28" width="180" height="112" />
				<circle class="ripple desk-D-38" fill="#fff" visibility="hidden" cx="24" cy="29" r="15" />
        
				  <circle class="ripple desk-D-39" fill="#fff" visibility="hidden" cx="64" cy="29" r="15" />
        
			</g>
		
			
      
      
	      
      
			<g class="desk desk-D-40 desk-D-41" id="desk-D-40-41" transform="translate(754, 385) rotate(-90)">
				<rect id="desk-larger-D" class="desk larger desk-D-40 desk-D-41" fill="#ccc" x="-45" y="-28" width="180" height="112" />
				<circle class="ripple desk-D-40" fill="#fff" visibility="hidden" cx="24" cy="29" r="15" />
        
				  <circle class="ripple desk-D-41" fill="#fff" visibility="hidden" cx="64" cy="29" r="15" />
        
			</g>
		
			
      
      
	      
      
			<g class="desk desk-D-42 desk-D-43" id="desk-D-42-43" transform="translate(754, 475) rotate(-90)">
				<rect id="desk-larger-D" class="desk larger desk-D-42 desk-D-43" fill="#ccc" x="-45" y="-28" width="180" height="112" />
				<circle class="ripple desk-D-42" fill="#fff" visibility="hidden" cx="24" cy="29" r="15" />
        
				  <circle class="ripple desk-D-43" fill="#fff" visibility="hidden" cx="64" cy="29" r="15" />
        
			</g>
		
			
      
      
	      
      
			<g class="desk desk-D-44 desk-D-45" id="desk-D-44-45" transform="translate(686, 295) rotate(90)">
				<rect id="desk-larger-D" class="desk larger desk-D-44 desk-D-45" fill="#ccc" x="-45" y="-28" width="180" height="112" />
				<circle class="ripple desk-D-44" fill="#fff" visibility="hidden" cx="24" cy="29" r="15" />
        
				  <circle class="ripple desk-D-45" fill="#fff" visibility="hidden" cx="64" cy="29" r="15" />
        
			</g>
		
			
      
      
	      
      
			<g class="desk desk-D-46 desk-D-47" id="desk-D-46-47" transform="translate(630, 240) rotate(0)">
				<rect id="desk-larger-D" class="desk larger desk-D-46 desk-D-47" fill="#ccc" x="-45" y="-28" width="180" height="112" />
				<circle class="ripple desk-D-46" fill="#fff" visibility="hidden" cx="24" cy="29" r="15" />
        
				  <circle class="ripple desk-D-47" fill="#fff" visibility="hidden" cx="64" cy="29" r="15" />
        
			</g>
		
			
      
      
	      
      
			<g class="desk desk-D-48 desk-D-49" id="desk-D-48-49" transform="translate(720, 240) rotate(0)">
				<rect id="desk-larger-D" class="desk larger desk-D-48 desk-D-49" fill="#ccc" x="-45" y="-28" width="180" height="112" />
				<circle class="ripple desk-D-48" fill="#fff" visibility="hidden" cx="24" cy="29" r="15" />
        
				  <circle class="ripple desk-D-49" fill="#fff" visibility="hidden" cx="64" cy="29" r="15" />
        
			</g>
		
	
		
		
			
      
      
	      
      
			<g class="desk desk-E-11 desk-E-12" id="desk-E-11-12" transform="translate(230, 50) rotate(0)">
				<rect id="desk-larger-E" class="desk larger desk-E-11 desk-E-12" fill="#ccc" x="-45" y="-28" width="180" height="112" />
				<circle class="ripple desk-E-11" fill="#fff" visibility="hidden" cx="24" cy="29" r="15" />
        
				  <circle class="ripple desk-E-12" fill="#fff" visibility="hidden" cx="64" cy="29" r="15" />
        
			</g>
		
			
      
      
	      
      
			<g class="desk desk-E-13 desk-E-14" id="desk-E-13-14" transform="translate(335, 50) rotate(0)">
				<rect id="desk-larger-E" class="desk larger desk-E-13 desk-E-14" fill="#ccc" x="-45" y="-28" width="180" height="112" />
				<circle class="ripple desk-E-13" fill="#fff" visibility="hidden" cx="24" cy="29" r="15" />
        
				  <circle class="ripple desk-E-14" fill="#fff" visibility="hidden" cx="64" cy="29" r="15" />
        
			</g>
		
			
      
      
	      
      
			<g class="desk desk-E-15 desk-E-16" id="desk-E-15-16" transform="translate(440, 50) rotate(0)">
				<rect id="desk-larger-E" class="desk larger desk-E-15 desk-E-16" fill="#ccc" x="-45" y="-28" width="180" height="112" />
				<circle class="ripple desk-E-15" fill="#fff" visibility="hidden" cx="24" cy="29" r="15" />
        
				  <circle class="ripple desk-E-16" fill="#fff" visibility="hidden" cx="64" cy="29" r="15" />
        
			</g>
		
			
      
      
	      
      
			<g class="desk desk-E-17 desk-E-18" id="desk-E-17-18" transform="translate(545, 50) rotate(0)">
				<rect id="desk-larger-E" class="desk larger desk-E-17 desk-E-18" fill="#ccc" x="-45" y="-28" width="180" height="112" />
				<circle class="ripple desk-E-17" fill="#fff" visibility="hidden" cx="24" cy="29" r="15" />
        
				  <circle class="ripple desk-E-18" fill="#fff" visibility="hidden" cx="64" cy="29" r="15" />
        
			</g>
		
			
      
      
	      
      
			<g class="desk desk-E-19 desk-E-20" id="desk-E-19-20" transform="translate(650, 50) rotate(0)">
				<rect id="desk-larger-E" class="desk larger desk-E-19 desk-E-20" fill="#ccc" x="-45" y="-28" width="180" height="112" />
				<circle class="ripple desk-E-19" fill="#fff" visibility="hidden" cx="24" cy="29" r="15" />
        
				  <circle class="ripple desk-E-20" fill="#fff" visibility="hidden" cx="64" cy="29" r="15" />
        
			</g>
		
			
      
      
	      
      
			<g class="desk desk-E-21 desk-E-22" id="desk-E-21-22" transform="translate(755, 50) rotate(0)">
				<rect id="desk-larger-E" class="desk larger desk-E-21 desk-E-22" fill="#ccc" x="-45" y="-28" width="180" height="112" />
				<circle class="ripple desk-E-21" fill="#fff" visibility="hidden" cx="24" cy="29" r="15" />
        
				  <circle class="ripple desk-E-22" fill="#fff" visibility="hidden" cx="64" cy="29" r="15" />
        
			</g>
		
	
</g>
</g>
</svg>
